<svg xmlns="http://www.w3.org/2000/svg" xmlns:xlink="http://www.w3.org/1999/xlink" version="1.1" width="256" height="256" viewBox="0 0 256 256" xml:space="preserve">

<defs>
</defs>
<g style="stroke: none; stroke-width: 0; stroke-dasharray: none; stroke-linecap: butt; stroke-linejoin: miter; stroke-miterlimit: 10; fill: none; fill-rule: nonzero; opacity: 1;" transform="translate(39.3279291116759 103.87578903385484) rotate(-30) scale(1.43 1.43)" >
	<path d="M 84.127 77.591 l -8.53 -4.925 l -8.53 -4.925 c -0.914 -0.528 -2.056 0.132 -2.056 1.187 v 6.207 c -13.935 -1.705 -24.766 -13.603 -24.766 -27.991 v -12.12 c 0 -18.8 -14.876 -34.192 -33.475 -35.023 C 5.912 -0.037 5.188 0.633 5.188 1.493 v 3.871 c 0 0.785 0.608 1.448 1.391 1.486 C 21.49 7.577 33.397 19.937 33.397 35.024 v 12.12 c 0 18.17 13.894 33.152 31.615 34.887 v 6.595 c 0 1.055 1.142 1.714 2.056 1.187 l 8.53 -4.925 l 8.53 -4.925 C 85.041 79.438 85.041 78.119 84.127 77.591 z" style="stroke: none; stroke-width: 1; stroke-dasharray: none; stroke-linecap: butt; stroke-linejoin: miter; stroke-miterlimit: 10; fill: rgb(35,206,107); fill-rule: nonzero; opacity: 1;" transform=" matrix(1 0 0 1 0 0) " stroke-linecap="round" />
</g>
</svg>